<svg version="1.1" id="Layer_1" xmlns="http://www.w3.org/2000/svg" xmlns:xlink="http://www.w3.org/1999/xlink" x="0px" y="0px"
	 width="100%" viewBox="0 0 512 512" enable-background="new 0 0 512 512" xml:space="preserve">
<path fill="transparent" opacity="1.000000" stroke="none" 
	d="
M1.000001,48.000000 
	C1.000000,32.344643 1.000000,16.689287 1.000002,1.040985 
	C171.666672,1.048040 342.333344,1.048040 513.000000,1.048040 
	C513.000000,16.418282 513.000000,31.740482 512.644531,47.532623 
	C510.904144,49.123272 509.398712,50.124546 508.151703,51.382065 
	C474.055725,85.765793 440.072906,120.262184 405.891205,154.560440 
	C357.549011,203.067535 309.057770,251.426102 260.671967,299.889862 
	C259.528839,301.034790 258.879944,302.673157 257.641846,304.655731 
	C251.822800,298.248749 247.382919,292.936218 242.509033,288.057251 
	C163.374008,208.839584 84.186920,129.673935 4.975087,50.533058 
	C3.889804,49.448746 2.335435,48.833939 1.000001,48.000000 
z"/>
<path fill="transparent" opacity="1.000000" stroke="none" 
	d="
M513.000000,238.000000 
	C513.000000,329.629181 513.000000,421.258331 513.000000,512.943726 
	C342.440643,512.943726 171.881241,512.943726 1.000000,512.943726 
	C1.000000,421.644897 1.000000,330.289429 1.331366,238.537079 
	C71.260681,307.411407 140.858673,376.682587 210.456146,445.954254 
	C211.282333,446.776581 212.050598,447.665497 212.933472,448.421021 
	C215.912415,450.970306 218.773483,453.695557 221.961990,455.955017 
	C234.673187,464.962769 248.986893,468.357971 264.344269,466.921326 
	C274.591461,465.962708 284.381409,462.667328 292.256256,456.015106 
	C302.582489,447.292175 312.433350,437.956451 322.010712,428.405090 
	C384.511932,366.073486 446.882477,303.610840 509.308624,241.203918 
	C510.458038,240.054886 511.766022,239.064468 513.000000,238.000000 
z"/>
<path fill="#000000" opacity="1.000000" stroke="none" 
	d="
M513.000000,237.531342 
	C511.766022,239.064468 510.458038,240.054886 509.308624,241.203918 
	C446.882477,303.610840 384.511932,366.073486 322.010712,428.405090 
	C312.433350,437.956451 302.582489,447.292175 292.256256,456.015106 
	C284.381409,462.667328 274.591461,465.962708 264.344269,466.921326 
	C248.986893,468.357971 234.673187,464.962769 221.961990,455.955017 
	C218.773483,453.695557 215.912415,450.970306 212.933472,448.421021 
	C212.050598,447.665497 211.282333,446.776581 210.456146,445.954254 
	C140.858673,376.682587 71.260681,307.411407 1.331366,238.070099 
	C1.000000,174.979111 1.000000,111.958214 1.000001,48.468658 
	C2.335435,48.833939 3.889804,49.448746 4.975087,50.533058 
	C84.186920,129.673935 163.374008,208.839584 242.509033,288.057251 
	C247.382919,292.936218 251.822800,298.248749 257.641846,304.655731 
	C258.879944,302.673157 259.528839,301.034790 260.671967,299.889862 
	C309.057770,251.426102 357.549011,203.067535 405.891205,154.560440 
	C440.072906,120.262184 474.055725,85.765793 508.151703,51.382065 
	C509.398712,50.124546 510.904144,49.123272 512.644531,48.001282 
	C513.000000,111.020897 513.000000,174.041794 513.000000,237.531342 
M104.495667,281.997314 
	C119.578445,297.079559 134.610245,312.213165 149.754623,327.233307 
	C181.181915,358.402649 212.661987,389.518799 244.136536,420.640442 
	C251.456970,427.878815 263.564575,427.863434 270.891846,420.616119 
	C302.717133,389.137970 334.596069,357.713593 366.322205,326.135773 
	C401.046417,291.573883 435.647247,256.887756 470.187897,222.142471 
	C471.705536,220.615845 472.861816,217.968063 472.880707,215.830994 
	C473.075165,193.835098 473.004913,171.836792 472.986633,149.839188 
	C472.985626,148.644775 472.790558,147.450531 472.609955,145.391205 
	C426.304749,192.200516 380.688599,238.400162 334.968079,284.496216 
	C310.675903,308.987976 286.115265,333.214081 261.904266,357.785217 
	C258.218414,361.525879 256.379395,361.054962 252.935501,357.600708 
	C183.750916,288.208008 114.440674,218.940598 45.148647,149.655045 
	C43.953476,148.459991 42.670654,147.352631 41.000015,145.807953 
	C41.000015,169.932587 40.943291,193.250168 41.109436,216.566162 
	C41.122501,218.399445 42.257450,220.655319 43.596275,221.983963 
	C63.657551,241.892639 83.840813,261.678406 104.495667,281.997314 
z"/>
<path fill="transparent" opacity="1.000000" stroke="none" 
	d="
M104.245514,281.745178 
	C83.840813,261.678406 63.657551,241.892639 43.596275,221.983963 
	C42.257450,220.655319 41.122501,218.399445 41.109436,216.566162 
	C40.943291,193.250168 41.000015,169.932587 41.000015,145.807953 
	C42.670654,147.352631 43.953476,148.459991 45.148647,149.655045 
	C114.440674,218.940598 183.750916,288.208008 252.935501,357.600708 
	C256.379395,361.054962 258.218414,361.525879 261.904266,357.785217 
	C286.115265,333.214081 310.675903,308.987976 334.968079,284.496216 
	C380.688599,238.400162 426.304749,192.200516 472.609955,145.391205 
	C472.790558,147.450531 472.985626,148.644775 472.986633,149.839188 
	C473.004913,171.836792 473.075165,193.835098 472.880707,215.830994 
	C472.861816,217.968063 471.705536,220.615845 470.187897,222.142471 
	C435.647247,256.887756 401.046417,291.573883 366.322205,326.135773 
	C334.596069,357.713593 302.717133,389.137970 270.891846,420.616119 
	C263.564575,427.863434 251.456970,427.878815 244.136536,420.640442 
	C212.661987,389.518799 181.181915,358.402649 149.754623,327.233307 
	C134.610245,312.213165 119.578445,297.079559 104.245514,281.745178 
z"/>
</svg>