<svg version="1.1" id="Layer_1" xmlns="http://www.w3.org/2000/svg" xmlns:xlink="http://www.w3.org/1999/xlink" x="0px" y="0px"
	 width="100%" viewBox="0 0 100 100" enable-background="new 0 0 100 100" xml:space="preserve">
<path fill="transparent" opacity="1.000000" stroke="none" 
	d="
M101.000000,40.000000 
	C101.000000,60.666660 101.000000,80.833321 101.000000,100.999985 
	C67.666679,100.999992 34.333366,100.999992 1.000036,101.000000 
	C1.000024,67.666695 1.000024,34.333385 1.000012,1.000058 
	C34.333298,1.000039 67.666595,1.000039 100.999947,1.000019 
	C101.000000,13.833333 101.000000,26.666666 101.000000,40.000000 
M5.000000,55.339260 
	C5.005894,56.838467 4.710516,58.412689 5.062380,59.825745 
	C11.451792,85.484978 32.082123,101.536453 59.783424,96.623856 
	C87.326851,91.739243 103.340172,65.600380 95.225418,36.679039 
	C90.385658,19.429909 70.729286,4.224807 51.620453,4.685487 
	C34.304150,5.102951 21.635679,12.103172 11.969147,25.631084 
	C5.854424,34.188385 4.148463,44.026287 5.000000,55.339260 
z"/>
<path fill="#FFFFFF" opacity="1.000000" stroke="none" 
	d="
M5.000000,54.859772 
	C4.148463,44.026287 5.854424,34.188385 11.969147,25.631084 
	C21.635679,12.103172 34.304150,5.102951 51.620453,4.685487 
	C70.729286,4.224807 90.385658,19.429909 95.225418,36.679039 
	C103.340172,65.600380 87.326851,91.739243 59.783424,96.623856 
	C32.082123,101.536453 11.451792,85.484978 5.062380,59.825745 
	C4.710516,58.412689 5.005894,56.838467 5.000000,54.859772 
M47.669495,92.000000 
	C51.494480,91.974487 55.519592,92.725342 59.112431,91.799225 
	C85.173668,85.081474 98.045616,61.337120 89.873268,37.303493 
	C81.265038,11.987982 53.458878,2.805022 31.073708,14.681142 
	C13.649469,23.925314 5.277940,44.232536 12.024253,64.397659 
	C17.440592,80.587418 30.855225,90.219208 47.669495,92.000000 
z"/>
<path fill="transparent" opacity="1.000000" stroke="none" 
	d="
M47.199043,92.000000 
	C30.855225,90.219208 17.440592,80.587418 12.024253,64.397659 
	C5.277940,44.232536 13.649469,23.925314 31.073708,14.681142 
	C53.458878,2.805022 81.265038,11.987982 89.873268,37.303493 
	C98.045616,61.337120 85.173668,85.081474 59.112431,91.799225 
	C55.519592,92.725342 51.494480,91.974487 47.199043,92.000000 
M54.455723,59.963684 
	C56.153381,62.321400 58.299774,64.480247 59.451805,67.079773 
	C61.604218,71.936630 65.043045,71.377243 69.338791,70.441261 
	C66.628342,66.440926 64.213066,62.848911 61.769970,59.275917 
	C55.850590,50.618893 55.942966,50.694744 62.276337,42.143780 
	C64.943703,38.542442 67.101303,34.563538 69.519806,30.709782 
	C61.970840,27.860445 60.570274,33.401196 57.960884,37.249718 
	C51.136303,47.315121 52.370655,45.922733 47.002949,36.862961 
	C42.662872,29.537657 42.390938,29.319094 34.771313,30.614981 
	C38.574574,36.331448 42.149441,42.012569 46.065868,47.447559 
	C47.756584,49.793831 47.629864,51.349483 45.973759,53.649567 
	C42.064850,59.078465 38.515827,64.766487 34.699493,70.533707 
	C39.703476,71.947388 43.011040,70.747253 45.210957,66.370659 
	C46.573715,63.659527 48.342396,61.139751 50.058434,58.622414 
	C51.810944,56.051579 53.146111,56.697895 54.455723,59.963684 
z"/>
<path fill="#FFFFFF" opacity="1.000000" stroke="none" 
	d="
M54.243874,59.656075 
	C53.146111,56.697895 51.810944,56.051579 50.058434,58.622414 
	C48.342396,61.139751 46.573715,63.659527 45.210957,66.370659 
	C43.011040,70.747253 39.703476,71.947388 34.699493,70.533707 
	C38.515827,64.766487 42.064850,59.078465 45.973759,53.649567 
	C47.629864,51.349483 47.756584,49.793831 46.065868,47.447559 
	C42.149441,42.012569 38.574574,36.331448 34.771313,30.614981 
	C42.390938,29.319094 42.662872,29.537657 47.002949,36.862961 
	C52.370655,45.922733 51.136303,47.315121 57.960884,37.249718 
	C60.570274,33.401196 61.970840,27.860445 69.519806,30.709782 
	C67.101303,34.563538 64.943703,38.542442 62.276337,42.143780 
	C55.942966,50.694744 55.850590,50.618893 61.769970,59.275917 
	C64.213066,62.848911 66.628342,66.440926 69.338791,70.441261 
	C65.043045,71.377243 61.604218,71.936630 59.451805,67.079773 
	C58.299774,64.480247 56.153381,62.321400 54.243874,59.656075 
z"/>
</svg>