<svg version="1.1" id="Layer_1" xmlns="http://www.w3.org/2000/svg" xmlns:xlink="http://www.w3.org/1999/xlink" x="0px" y="0px"
	 width="100%" viewBox="0 0 487 488" enable-background="new 0 0 487 488" xml:space="preserve">
<path fill="#020202" opacity="1.000000" stroke="none" 
	d="
M488.000000,235.000000 
	C488.000000,242.354248 488.000000,249.708496 487.607849,257.699280 
	C485.059082,273.139771 483.890869,288.168396 480.585510,302.711273 
	C459.075867,397.348206 377.736694,471.980835 281.354889,486.142212 
	C275.228882,487.042328 269.117950,488.045044 263.000000,489.000000 
	C250.312439,489.000000 237.624878,489.000000 224.303192,488.617310 
	C206.892715,485.014526 189.482864,483.673340 173.444260,478.265411 
	C78.892250,446.384308 22.068985,381.174164 3.855813,282.771881 
	C2.883442,277.518372 1.951020,272.257477 1.000000,267.000000 
	C1.000000,253.312439 1.000000,239.624878 1.387641,225.312286 
	C2.315697,220.229340 2.757290,215.756882 3.411726,211.315781 
	C10.405205,163.857147 29.337170,121.768105 61.152912,85.844368 
	C105.728462,35.513294 161.773514,7.487833 228.893860,3.232817 
	C290.631622,-0.680974 346.509735,16.392174 394.942474,55.144035 
	C448.586578,98.065575 479.091614,154.042740 486.223572,222.555252 
	C486.657104,226.720016 487.400696,230.852493 488.000000,235.000000 
M26.833347,251.483200 
	C29.130505,368.970917 128.768753,464.750214 245.526154,463.478210 
	C364.863495,462.178009 463.425201,364.699036 461.724304,242.840591 
	C460.035522,121.851151 360.531433,25.999157 240.621750,28.325943 
	C119.301590,30.680101 23.621887,130.633194 26.833347,251.483200 
z"/>
<path fill="transparent" opacity="1.000000" stroke="none" 
	d="
M488.000000,234.531342 
	C487.400696,230.852493 486.657104,226.720016 486.223572,222.555252 
	C479.091614,154.042740 448.586578,98.065575 394.942474,55.144035 
	C346.509735,16.392174 290.631622,-0.680974 228.893860,3.232817 
	C161.773514,7.487833 105.728462,35.513294 61.152912,85.844368 
	C29.337170,121.768105 10.405205,163.857147 3.411726,211.315781 
	C2.757290,215.756882 2.315697,220.229340 1.387641,224.843628 
	C1.000000,150.367905 1.000000,75.735802 1.000000,1.051850 
	C163.223602,1.051850 325.447205,1.051850 488.000000,1.051850 
	C488.000000,78.687248 488.000000,156.374969 488.000000,234.531342 
z"/>
<path fill="transparent" opacity="1.000000" stroke="none" 
	d="
M263.468658,489.000000 
	C269.117950,488.045044 275.228882,487.042328 281.354889,486.142212 
	C377.736694,471.980835 459.075867,397.348206 480.585510,302.711273 
	C483.890869,288.168396 485.059082,273.139771 487.607849,258.167908 
	C488.000000,334.926086 488.000000,411.852142 488.000000,489.000000 
	C413.312592,489.000000 338.624939,489.000000 263.468658,489.000000 
z"/>
<path fill="transparent" opacity="1.000000" stroke="none" 
	d="
M1.000000,267.468658 
	C1.951020,272.257477 2.883442,277.518372 3.855813,282.771881 
	C22.068985,381.174164 78.892250,446.384308 173.444260,478.265411 
	C189.482864,483.673340 206.892715,485.014526 223.834534,488.617310 
	C149.739792,489.000000 75.479599,489.000000 1.000000,489.000000 
	C1.000000,415.312592 1.000000,341.624939 1.000000,267.468658 
z"/>
<path fill="transparent" opacity="1.000000" stroke="none" 
	d="
M26.820011,250.985779 
	C23.621887,130.633194 119.301590,30.680101 240.621750,28.325943 
	C360.531433,25.999157 460.035522,121.851151 461.724304,242.840591 
	C463.425201,364.699036 364.863495,462.178009 245.526154,463.478210 
	C128.768753,464.750214 29.130505,368.970917 26.820011,250.985779 
M202.499817,258.678009 
	C257.645966,258.678009 312.792084,258.682404 367.938232,258.661682 
	C370.094727,258.660858 372.287872,258.626984 374.400848,258.252563 
	C380.921417,257.097168 385.300476,251.552338 384.956940,245.130844 
	C384.614777,238.735703 379.658264,233.645218 373.132874,233.063782 
	C371.643982,232.931122 370.136169,232.995773 368.637054,232.995728 
	C285.667938,232.993225 202.698822,232.992981 119.729698,232.997375 
	C118.064468,232.997452 116.381599,232.910385 114.737015,233.110687 
	C107.132637,234.036865 102.170158,241.160126 103.833290,248.652359 
	C105.268463,255.117645 110.313889,258.648834 118.530708,258.661591 
	C146.187012,258.704529 173.843430,258.677948 202.499817,258.678009 
M115.161041,156.210892 
	C105.886574,158.480621 101.389854,165.514603 104.183357,173.382675 
	C106.179718,179.005539 111.173241,181.878525 119.093460,181.879150 
	C202.416351,181.885651 285.739258,181.883911 369.062134,181.877243 
	C370.559967,181.877121 372.083160,181.946548 373.551056,181.711853 
	C378.501984,180.920288 382.176392,178.380371 384.053223,173.581894 
	C387.620361,164.461899 380.987518,156.132599 370.007690,156.130615 
	C285.351776,156.115341 200.695847,156.136169 115.161041,156.210892 
M131.500671,309.875916 
	C126.004227,309.903198 120.496735,309.722260 115.014297,310.013336 
	C108.908058,310.337616 104.271400,315.109406 103.571228,321.245880 
	C102.909576,327.044739 106.331810,332.863495 111.903938,334.512268 
	C114.550079,335.295258 117.488663,335.299835 120.294922,335.301117 
	C202.915878,335.338837 285.536835,335.332825 368.157806,335.330353 
	C378.986633,335.330048 384.904907,330.870819 384.969238,322.688904 
	C385.033752,314.485260 379.072815,309.877258 368.369934,309.876984 
	C289.746765,309.875000 211.123566,309.875916 131.500671,309.875916 
z"/>
<path fill="#040404" opacity="1.000000" stroke="none" 
	d="
M201.999817,258.678009 
	C173.843430,258.677948 146.187012,258.704529 118.530708,258.661591 
	C110.313889,258.648834 105.268463,255.117645 103.833290,248.652359 
	C102.170158,241.160126 107.132637,234.036865 114.737015,233.110687 
	C116.381599,232.910385 118.064468,232.997452 119.729698,232.997375 
	C202.698822,232.992981 285.667938,232.993225 368.637054,232.995728 
	C370.136169,232.995773 371.643982,232.931122 373.132874,233.063782 
	C379.658264,233.645218 384.614777,238.735703 384.956940,245.130844 
	C385.300476,251.552338 380.921417,257.097168 374.400848,258.252563 
	C372.287872,258.626984 370.094727,258.660858 367.938232,258.661682 
	C312.792084,258.682404 257.645966,258.678009 201.999817,258.678009 
z"/>
<path fill="#040404" opacity="1.000000" stroke="none" 
	d="
M115.600479,156.178345 
	C200.695847,156.136169 285.351776,156.115341 370.007690,156.130615 
	C380.987518,156.132599 387.620361,164.461899 384.053223,173.581894 
	C382.176392,178.380371 378.501984,180.920288 373.551056,181.711853 
	C372.083160,181.946548 370.559967,181.877121 369.062134,181.877243 
	C285.739258,181.883911 202.416351,181.885651 119.093460,181.879150 
	C111.173241,181.878525 106.179718,179.005539 104.183357,173.382675 
	C101.389854,165.514603 105.886574,158.480621 115.600479,156.178345 
z"/>
<path fill="#000000" opacity="1.000000" stroke="none" 
	d="
M132.000519,309.875916 
	C211.123566,309.875916 289.746765,309.875000 368.369934,309.876984 
	C379.072815,309.877258 385.033752,314.485260 384.969238,322.688904 
	C384.904907,330.870819 378.986633,335.330048 368.157806,335.330353 
	C285.536835,335.332825 202.915878,335.338837 120.294922,335.301117 
	C117.488663,335.299835 114.550079,335.295258 111.903938,334.512268 
	C106.331810,332.863495 102.909576,327.044739 103.571228,321.245880 
	C104.271400,315.109406 108.908058,310.337616 115.014297,310.013336 
	C120.496735,309.722260 126.004227,309.903198 132.000519,309.875916 
z"/>
</svg>