<svg version="1.1" id="Layer_1" xmlns="http://www.w3.org/2000/svg" xmlns:xlink="http://www.w3.org/1999/xlink" x="0px" y="0px"
	 width="100%" viewBox="0 0 513 421" enable-background="new 0 0 513 421" xml:space="preserve">
<path fill="transparent" opacity="1.000000" stroke="none" 
	d="
M304.000000,422.000000 
	C202.666672,422.000000 101.833336,422.000000 1.000000,422.000000 
	C1.000000,281.666656 1.000000,141.333328 1.000000,1.000000 
	C172.000000,1.000000 343.000000,1.000000 514.000000,1.000000 
	C514.000000,141.333328 514.000000,281.666656 514.000000,422.000000 
	C444.166656,422.000000 374.333344,422.000000 304.000000,422.000000 
M470.037720,346.788055 
	C474.251495,304.779083 478.465271,262.770081 482.700195,220.550369 
	C487.204376,220.550369 491.015564,220.578262 494.826233,220.544067 
	C501.049957,220.488220 503.001862,218.631454 503.016724,212.579193 
	C503.052704,197.913910 503.050049,183.248413 503.017914,168.583099 
	C503.004486,162.449844 501.063324,160.480530 494.987061,160.461731 
	C482.154938,160.422028 469.321014,160.338425 456.491455,160.523529 
	C453.051636,160.573181 450.649261,159.544373 448.212128,157.102081 
	C403.127777,111.921883 357.956207,66.828659 312.789215,21.730976 
	C311.024139,19.968618 309.228333,18.206715 307.264465,16.679014 
	C298.453033,9.824562 285.124634,10.201622 276.773987,17.449804 
	C265.983093,26.816084 265.723785,42.608852 276.356384,53.248577 
	C310.518311,87.433456 344.730164,121.568474 378.961243,155.684128 
	C380.192200,156.910904 381.828430,157.731003 383.275757,158.740631 
	C382.922028,159.128830 382.568268,159.517044 382.214539,159.905243 
	C298.678223,159.905243 215.141876,159.905243 130.129333,159.905243 
	C132.604370,157.773636 134.076614,156.661316 135.369522,155.369507 
	C169.557632,121.210220 203.733353,87.038521 237.896606,52.854374 
	C249.626831,41.116962 247.371231,22.798456 233.212265,14.521188 
	C223.532852,8.862641 212.116714,10.918229 202.873917,20.137430 
	C157.094650,65.799866 111.367607,111.514771 65.485001,157.073044 
	C63.633888,158.911057 60.421333,160.235367 57.805538,160.300980 
	C44.814819,160.626770 31.811378,160.418808 18.812651,160.464539 
	C13.416903,160.483521 11.040413,162.472504 11.013498,167.276917 
	C10.926677,182.775101 10.956068,198.274170 11.003169,213.772705 
	C11.016705,218.226425 13.407719,220.497787 17.859829,220.542633 
	C20.859274,220.572845 23.887232,220.807419 26.851929,220.485489 
	C30.573172,220.081406 31.614418,221.541016 31.965725,225.137161 
	C36.839298,275.025208 41.836464,324.901276 46.881054,374.772430 
	C49.092556,396.635498 66.714005,412.540436 88.614555,412.543365 
	C200.771637,412.558289 312.928711,412.555939 425.085785,412.545227 
	C445.027405,412.543304 461.808899,399.855255 465.997986,380.382874 
	C468.296692,369.697601 468.720154,358.608978 470.037720,346.788055 
z"/>
<path fill="#0C0C0C" opacity="1.000000" stroke="none" 
	d="
M470.013428,347.245117 
	C468.720154,358.608978 468.296692,369.697601 465.997986,380.382874 
	C461.808899,399.855255 445.027405,412.543304 425.085785,412.545227 
	C312.928711,412.555939 200.771637,412.558289 88.614555,412.543365 
	C66.714005,412.540436 49.092556,396.635498 46.881054,374.772430 
	C41.836464,324.901276 36.839298,275.025208 31.965725,225.137161 
	C31.614418,221.541016 30.573172,220.081406 26.851929,220.485489 
	C23.887232,220.807419 20.859274,220.572845 17.859829,220.542633 
	C13.407719,220.497787 11.016705,218.226425 11.003169,213.772705 
	C10.956068,198.274170 10.926677,182.775101 11.013498,167.276917 
	C11.040413,162.472504 13.416903,160.483521 18.812651,160.464539 
	C31.811378,160.418808 44.814819,160.626770 57.805538,160.300980 
	C60.421333,160.235367 63.633888,158.911057 65.485001,157.073044 
	C111.367607,111.514771 157.094650,65.799866 202.873917,20.137430 
	C212.116714,10.918229 223.532852,8.862641 233.212265,14.521188 
	C247.371231,22.798456 249.626831,41.116962 237.896606,52.854374 
	C203.733353,87.038521 169.557632,121.210220 135.369522,155.369507 
	C134.076614,156.661316 132.604370,157.773636 130.129333,159.905243 
	C215.141876,159.905243 298.678223,159.905243 382.214539,159.905243 
	C382.568268,159.517044 382.922028,159.128830 383.275757,158.740631 
	C381.828430,157.731003 380.192200,156.910904 378.961243,155.684128 
	C344.730164,121.568474 310.518311,87.433456 276.356384,53.248577 
	C265.723785,42.608852 265.983093,26.816084 276.773987,17.449804 
	C285.124634,10.201622 298.453033,9.824562 307.264465,16.679014 
	C309.228333,18.206715 311.024139,19.968618 312.789215,21.730976 
	C357.956207,66.828659 403.127777,111.921883 448.212128,157.102081 
	C450.649261,159.544373 453.051636,160.573181 456.491455,160.523529 
	C469.321014,160.338425 482.154938,160.422028 494.987061,160.461731 
	C501.063324,160.480530 503.004486,162.449844 503.017914,168.583099 
	C503.050049,183.248413 503.052704,197.913910 503.016724,212.579193 
	C503.001862,218.631454 501.049957,220.488220 494.826233,220.544067 
	C491.015564,220.578262 487.204376,220.550369 482.700195,220.550369 
	C478.465271,262.770081 474.251495,304.779083 470.013428,347.245117 
M45.966545,245.389008 
	C46.287746,248.536423 46.617569,251.682999 46.928833,254.831390 
	C50.713043,293.108032 54.378315,331.397125 58.406952,369.647980 
	C58.984879,375.135284 60.404873,380.932343 63.013481,385.727386 
	C69.133331,396.976654 79.628845,400.517761 92.015930,400.506744 
	C201.989716,400.408997 311.963593,400.451508 421.937469,400.438171 
	C423.932281,400.437958 425.931976,400.319946 427.921082,400.155884 
	C442.563080,398.948151 453.612122,388.271729 455.111969,373.614655 
	C459.739380,328.394440 464.288544,283.166260 468.841400,237.938477 
	C469.415314,232.237625 469.829620,226.520706 470.313324,220.864578 
	C327.709076,220.864578 185.825378,220.864578 43.502178,220.864578 
	C44.327606,228.969131 45.117268,236.722534 45.966545,245.389008 
M84.084877,202.815063 
	C67.305939,206.953522 55.070366,195.704620 53.399448,183.010696 
	C52.959953,179.671875 53.333164,176.226044 53.333164,172.689224 
	C43.401466,172.689224 33.446896,172.689224 23.256977,172.689224 
	C23.256977,184.567963 23.256977,196.331192 23.256977,208.221924 
	C179.164139,208.221924 334.891937,208.221924 490.712341,208.221924 
	C490.712341,196.230865 490.712341,184.469360 490.712341,172.864227 
	C480.341827,172.864227 470.239258,172.864227 460.171814,172.864227 
	C460.106140,173.504852 460.004944,173.841553 460.048798,174.158173 
	C461.795288,186.769882 457.268036,196.447327 447.316498,201.345612 
	C437.093353,206.377563 426.755554,203.948120 417.620514,194.526230 
	C411.472961,188.185654 405.357788,181.793610 398.861694,175.823334 
	C396.921600,174.040268 393.745575,172.687531 391.133057,172.682892 
	C301.635468,172.523529 212.137466,172.526230 122.639824,172.676270 
	C120.172935,172.680405 117.158951,173.965607 115.341988,175.662186 
	C108.525841,182.026718 102.280281,189.003296 95.448662,195.349823 
	C92.356911,198.222061 88.392136,200.154541 84.084877,202.815063 
M385.829895,145.669937 
	C395.708740,155.577621 405.581787,165.491104 415.469086,175.390320 
	C419.823853,179.750320 424.112091,184.183319 428.607666,188.394089 
	C432.381439,191.928787 436.956085,192.368637 441.632843,190.544510 
	C446.115997,188.795898 448.269287,185.052628 448.679718,180.467926 
	C449.121490,175.532959 446.170288,172.124176 442.895477,168.853424 
	C396.345490,122.361320 349.833893,75.830765 303.300018,29.322538 
	C302.010101,28.033333 300.688385,26.721355 299.186768,25.708843 
	C294.864349,22.794374 289.172974,23.028923 285.198273,26.114134 
	C281.346008,29.104313 279.344391,34.521645 281.247284,39.054928 
	C282.421570,41.852428 284.570282,44.401165 286.753662,46.590775 
	C319.566162,79.496582 352.457245,112.324051 385.829895,145.669937 
M141.740601,98.240257 
	C136.195297,103.772789 130.648590,109.303917 125.104950,114.838104 
	C106.941032,132.971039 88.793282,151.120209 70.601707,169.225357 
	C67.154396,172.656296 64.532272,176.387177 65.374847,181.539627 
	C66.173203,186.421600 69.067436,189.567886 73.785500,191.074890 
	C79.518196,192.905960 83.668419,190.352997 87.552902,186.462418 
	C133.948456,139.994080 180.383560,93.565231 226.802155,47.119900 
	C228.214096,45.707150 229.726196,44.350925 230.903275,42.755600 
	C233.824295,38.796680 234.226562,34.454899 231.968719,30.078850 
	C229.713440,25.707804 225.933853,22.864021 221.072174,23.856071 
	C217.597275,24.565145 213.858490,26.469471 211.332840,28.953997 
	C188.165634,51.744030 165.238037,74.777634 141.740601,98.240257 
z"/>
<path fill="transparent" opacity="1.000000" stroke="none" 
	d="
M45.936737,244.932465 
	C45.117268,236.722534 44.327606,228.969131 43.502178,220.864578 
	C185.825378,220.864578 327.709076,220.864578 470.313324,220.864578 
	C469.829620,226.520706 469.415314,232.237625 468.841400,237.938477 
	C464.288544,283.166260 459.739380,328.394440 455.111969,373.614655 
	C453.612122,388.271729 442.563080,398.948151 427.921082,400.155884 
	C425.931976,400.319946 423.932281,400.437958 421.937469,400.438171 
	C311.963593,400.451508 201.989716,400.408997 92.015930,400.506744 
	C79.628845,400.517761 69.133331,396.976654 63.013481,385.727386 
	C60.404873,380.932343 58.984879,375.135284 58.406952,369.647980 
	C54.378315,331.397125 50.713043,293.108032 46.928833,254.831390 
	C46.617569,251.682999 46.287746,248.536423 45.936737,244.932465 
M123.991730,256.861389 
	C119.787720,247.566437 112.347969,243.203720 103.506920,244.848999 
	C95.582336,246.323730 89.126328,253.461212 89.091232,261.686768 
	C88.952713,294.152649 88.958931,326.619781 89.093178,359.085693 
	C89.120529,365.699768 92.398384,370.904785 98.248817,374.091003 
	C110.665344,380.853210 124.875313,372.376312 124.949364,357.962555 
	C125.111870,326.329010 125.013222,294.694061 124.964348,263.059784 
	C124.961563,261.261169 124.447899,259.463379 123.991730,256.861389 
M208.998566,335.500000 
	C208.998566,342.488770 208.974243,349.477661 209.004013,356.466309 
	C209.054810,368.396698 216.466217,376.535431 227.150162,376.437866 
	C237.595016,376.342529 244.976593,368.215698 244.989700,356.622070 
	C245.024292,326.004456 245.018295,295.386810 244.993027,264.769165 
	C244.983093,252.749878 237.689804,244.591537 227.043365,244.562103 
	C216.345215,244.532501 209.017563,252.638382 209.005478,264.611908 
	C208.981934,287.907898 208.998566,311.203979 208.998566,335.500000 
M365.001404,304.500000 
	C365.001404,291.187988 365.031952,277.875854 364.992310,264.563965 
	C364.956787,252.648239 357.501678,244.476151 346.838165,244.562088 
	C336.334167,244.646744 329.018463,252.694656 329.008026,264.317902 
	C328.980377,295.101898 328.989441,325.885956 329.019897,356.669952 
	C329.021881,358.652618 329.077209,360.695831 329.538361,362.606995 
	C331.695282,371.546539 339.710327,377.164520 348.845245,376.304077 
	C357.890686,375.452057 364.857605,367.968140 364.945831,358.414673 
	C365.108704,340.777771 364.998077,323.138367 365.001404,304.500000 
M296.873016,247.422012 
	C283.309204,239.123077 268.478821,249.896439 268.799469,264.745667 
	C269.460938,295.374756 268.975677,326.028137 269.010376,356.671478 
	C269.023529,368.317108 276.380890,376.382660 286.881287,376.437866 
	C297.367157,376.492981 304.969482,368.366608 304.986115,356.865723 
	C305.030701,326.055878 304.954224,295.245789 305.038116,264.436096 
	C305.056580,257.649170 302.829071,252.100693 296.873016,247.422012 
M185.001389,323.500000 
	C185.001358,303.668884 185.048553,283.837616 184.982971,264.006714 
	C184.945618,252.716522 177.469589,244.627853 167.236023,244.569153 
	C156.632812,244.508331 149.022293,252.560684 149.010025,264.016327 
	C148.976837,295.012848 148.971405,326.009430 149.012802,357.005920 
	C149.028229,368.563751 156.548126,376.496948 167.232285,376.430817 
	C177.445755,376.367615 184.924332,368.238983 184.988022,356.996307 
	C185.049377,346.164520 185.001358,335.332123 185.001389,323.500000 
M425.001190,334.500000 
	C425.001068,310.871216 425.055176,287.242218 424.976837,263.613708 
	C424.940125,252.540665 417.274933,244.621826 406.854279,244.578140 
	C396.795288,244.535980 389.044189,252.538269 389.022491,263.304993 
	C388.958710,294.920837 388.929352,326.537201 389.041077,358.152802 
	C389.077942,368.586243 396.982635,376.461273 406.837402,376.421906 
	C417.147766,376.380707 424.827667,368.637878 424.979523,357.963715 
	C425.086029,350.477234 425.000793,342.988007 425.001190,334.500000 
z"/>
<path fill="transparent" opacity="1.000000" stroke="none" 
	d="
M84.454147,202.664215 
	C88.392136,200.154541 92.356911,198.222061 95.448662,195.349823 
	C102.280281,189.003296 108.525841,182.026718 115.341988,175.662186 
	C117.158951,173.965607 120.172935,172.680405 122.639824,172.676270 
	C212.137466,172.526230 301.635468,172.523529 391.133057,172.682892 
	C393.745575,172.687531 396.921600,174.040268 398.861694,175.823334 
	C405.357788,181.793610 411.472961,188.185654 417.620514,194.526230 
	C426.755554,203.948120 437.093353,206.377563 447.316498,201.345612 
	C457.268036,196.447327 461.795288,186.769882 460.048798,174.158173 
	C460.004944,173.841553 460.106140,173.504852 460.171814,172.864227 
	C470.239258,172.864227 480.341827,172.864227 490.712341,172.864227 
	C490.712341,184.469360 490.712341,196.230865 490.712341,208.221924 
	C334.891937,208.221924 179.164139,208.221924 23.256977,208.221924 
	C23.256977,196.331192 23.256977,184.567963 23.256977,172.689224 
	C33.446896,172.689224 43.401466,172.689224 53.333164,172.689224 
	C53.333164,176.226044 52.959953,179.671875 53.399448,183.010696 
	C55.070366,195.704620 67.305939,206.953522 84.454147,202.664215 
z"/>
<path fill="transparent" opacity="1.000000" stroke="none" 
	d="
M385.579865,145.419937 
	C352.457245,112.324051 319.566162,79.496582 286.753662,46.590775 
	C284.570282,44.401165 282.421570,41.852428 281.247284,39.054928 
	C279.344391,34.521645 281.346008,29.104313 285.198273,26.114134 
	C289.172974,23.028923 294.864349,22.794374 299.186768,25.708843 
	C300.688385,26.721355 302.010101,28.033333 303.300018,29.322538 
	C349.833893,75.830765 396.345490,122.361320 442.895477,168.853424 
	C446.170288,172.124176 449.121490,175.532959 448.679718,180.467926 
	C448.269287,185.052628 446.115997,188.795898 441.632843,190.544510 
	C436.956085,192.368637 432.381439,191.928787 428.607666,188.394089 
	C424.112091,184.183319 419.823853,179.750320 415.469086,175.390320 
	C405.581787,165.491104 395.708740,155.577621 385.579865,145.419937 
z"/>
<path fill="transparent" opacity="1.000000" stroke="none" 
	d="
M141.990601,97.990242 
	C165.238037,74.777634 188.165634,51.744030 211.332840,28.953997 
	C213.858490,26.469471 217.597275,24.565145 221.072174,23.856071 
	C225.933853,22.864021 229.713440,25.707804 231.968719,30.078850 
	C234.226562,34.454899 233.824295,38.796680 230.903275,42.755600 
	C229.726196,44.350925 228.214096,45.707150 226.802155,47.119900 
	C180.383560,93.565231 133.948456,139.994080 87.552902,186.462418 
	C83.668419,190.352997 79.518196,192.905960 73.785500,191.074890 
	C69.067436,189.567886 66.173203,186.421600 65.374847,181.539627 
	C64.532272,176.387177 67.154396,172.656296 70.601707,169.225357 
	C88.793282,151.120209 106.941032,132.971039 125.104950,114.838104 
	C130.648590,109.303917 136.195297,103.772789 141.990601,97.990242 
z"/>
<path fill="#010101" opacity="1.000000" stroke="none" 
	d="
M124.081863,257.263306 
	C124.447899,259.463379 124.961563,261.261169 124.964348,263.059784 
	C125.013222,294.694061 125.111870,326.329010 124.949364,357.962555 
	C124.875313,372.376312 110.665344,380.853210 98.248817,374.091003 
	C92.398384,370.904785 89.120529,365.699768 89.093178,359.085693 
	C88.958931,326.619781 88.952713,294.152649 89.091232,261.686768 
	C89.126328,253.461212 95.582336,246.323730 103.506920,244.848999 
	C112.347969,243.203720 119.787720,247.566437 124.081863,257.263306 
M112.998032,331.500000 
	C112.997986,309.010895 113.020523,286.521790 112.979652,264.032745 
	C112.971031,259.289612 110.513199,256.265686 106.851814,256.583344 
	C102.603745,256.951874 100.975639,259.656433 100.980820,263.772766 
	C101.019997,294.924286 101.014900,326.075867 100.986954,357.227448 
	C100.983292,361.306580 102.558586,364.080475 106.850525,364.420135 
	C110.529739,364.711212 112.951241,361.695740 112.982765,356.988037 
	C113.037437,348.825684 112.998001,340.662720 112.998032,331.500000 
z"/>
<path fill="#010101" opacity="1.000000" stroke="none" 
	d="
M208.998566,335.000000 
	C208.998566,311.203979 208.981934,287.907898 209.005478,264.611908 
	C209.017563,252.638382 216.345215,244.532501 227.043365,244.562103 
	C237.689804,244.591537 244.983093,252.749878 244.993027,264.769165 
	C245.018295,295.386810 245.024292,326.004456 244.989700,356.622070 
	C244.976593,368.215698 237.595016,376.342529 227.150162,376.437866 
	C216.466217,376.535431 209.054810,368.396698 209.004013,356.466309 
	C208.974243,349.477661 208.998566,342.488770 208.998566,335.000000 
M232.998016,334.500000 
	C232.997971,311.010345 233.018890,287.520630 232.980316,264.031036 
	C232.972519,259.274231 230.537720,256.270142 226.861099,256.583099 
	C222.612427,256.944702 220.976151,259.645447 220.981232,263.763641 
	C221.019684,294.916534 221.014999,326.069519 220.986771,357.222473 
	C220.983078,361.300537 222.553238,364.079376 226.846115,364.419098 
	C230.530746,364.710632 232.945953,361.698486 232.983139,356.990417 
	C233.039719,349.827362 232.997986,342.663513 232.998016,334.500000 
z"/>
<path fill="#010101" opacity="1.000000" stroke="none" 
	d="
M365.001404,305.000000 
	C364.998077,323.138367 365.108704,340.777771 364.945831,358.414673 
	C364.857605,367.968140 357.890686,375.452057 348.845245,376.304077 
	C339.710327,377.164520 331.695282,371.546539 329.538361,362.606995 
	C329.077209,360.695831 329.021881,358.652618 329.019897,356.669952 
	C328.989441,325.885956 328.980377,295.101898 329.008026,264.317902 
	C329.018463,252.694656 336.334167,244.646744 346.838165,244.562088 
	C357.501678,244.476151 364.956787,252.648239 364.992310,264.563965 
	C365.031952,277.875854 365.001404,291.187988 365.001404,305.000000 
M341.001953,313.500000 
	C341.001953,327.827026 340.986359,342.154083 341.010284,356.481079 
	C341.018951,361.675568 343.285645,364.752625 347.096344,364.414642 
	C351.657928,364.010071 353.031555,360.962463 353.024719,356.732361 
	C352.975006,325.912659 353.010681,295.092834 352.984833,264.273071 
	C352.980774,259.419708 350.754761,256.606171 347.099182,256.536438 
	C343.263885,256.463257 341.015533,259.356995 341.009186,264.521118 
	C340.989532,280.514038 341.001984,296.507050 341.001953,313.500000 
z"/>
<path fill="#010101" opacity="1.000000" stroke="none" 
	d="
M297.161957,247.656921 
	C302.829071,252.100693 305.056580,257.649170 305.038116,264.436096 
	C304.954224,295.245789 305.030701,326.055878 304.986115,356.865723 
	C304.969482,368.366608 297.367157,376.492981 286.881287,376.437866 
	C276.380890,376.382660 269.023529,368.317108 269.010376,356.671478 
	C268.975677,326.028137 269.460938,295.374756 268.799469,264.745667 
	C268.478821,249.896439 283.309204,239.123077 297.161957,247.656921 
M292.998047,280.500305 
	C292.998047,275.335907 293.013977,270.171448 292.993713,265.007141 
	C292.971832,259.430176 290.770996,256.426239 286.833679,256.536530 
	C283.041992,256.642700 281.012421,259.478027 281.006897,264.786652 
	C280.992340,278.780487 281.001953,292.774353 281.001953,306.768188 
	C281.001984,323.427521 280.983093,340.086914 281.013458,356.746185 
	C281.022675,361.789520 283.541534,364.921265 287.359528,364.414856 
	C291.905273,363.811859 293.043243,360.632477 293.031830,356.467133 
	C292.963623,331.478302 292.998047,306.489197 292.998047,280.500305 
z"/>
<path fill="#010101" opacity="1.000000" stroke="none" 
	d="
M185.001389,324.000000 
	C185.001358,335.332123 185.049377,346.164520 184.988022,356.996307 
	C184.924332,368.238983 177.445755,376.367615 167.232285,376.430817 
	C156.548126,376.496948 149.028229,368.563751 149.012802,357.005920 
	C148.971405,326.009430 148.976837,295.012848 149.010025,264.016327 
	C149.022293,252.560684 156.632812,244.508331 167.236023,244.569153 
	C177.469589,244.627853 184.945618,252.716522 184.982971,264.006714 
	C185.048553,283.837616 185.001358,303.668884 185.001389,324.000000 
M172.998077,287.500000 
	C172.998077,280.003235 173.013184,272.506470 172.993103,265.009735 
	C172.978149,259.432159 170.773651,256.428375 166.836975,256.536407 
	C163.043762,256.640533 161.014206,259.471130 161.007431,264.787903 
	C160.990677,277.948853 161.001923,291.109772 161.001923,304.270721 
	C161.001938,321.763123 160.985001,339.255524 161.012924,356.747864 
	C161.020706,361.627625 163.191467,364.405548 166.862885,364.464539 
	C170.688263,364.525970 172.984772,361.599548 172.989334,356.470428 
	C173.009506,333.813629 172.998062,311.156799 172.998077,287.500000 
z"/>
<path fill="#010101" opacity="1.000000" stroke="none" 
	d="
M425.001190,335.000000 
	C425.000793,342.988007 425.086029,350.477234 424.979523,357.963715 
	C424.827667,368.637878 417.147766,376.380707 406.837402,376.421906 
	C396.982635,376.461273 389.077942,368.586243 389.041077,358.152802 
	C388.929352,326.537201 388.958710,294.920837 389.022491,263.304993 
	C389.044189,252.538269 396.795288,244.535980 406.854279,244.578140 
	C417.274933,244.621826 424.940125,252.540665 424.976837,263.613708 
	C425.055176,287.242218 425.001068,310.871216 425.001190,335.000000 
M403.476288,363.284821 
	C409.436279,365.586395 412.962006,363.410034 412.973053,357.148590 
	C413.027863,326.041962 412.992279,294.935181 413.004852,263.828461 
	C413.006500,259.803345 411.449005,256.964569 407.166443,256.580383 
	C403.489777,256.250519 401.019928,259.260162 401.015839,263.933258 
	C400.988770,294.873627 400.967926,325.814148 401.080383,356.754120 
	C401.087646,358.751556 402.223206,360.744873 403.476288,363.284821 
z"/>
<path fill="transparent" opacity="1.000000" stroke="none" 
	d="
M112.998032,332.000000 
	C112.998001,340.662720 113.037437,348.825684 112.982765,356.988037 
	C112.951241,361.695740 110.529739,364.711212 106.850525,364.420135 
	C102.558586,364.080475 100.983292,361.306580 100.986954,357.227448 
	C101.014900,326.075867 101.019997,294.924286 100.980820,263.772766 
	C100.975639,259.656433 102.603745,256.951874 106.851814,256.583344 
	C110.513199,256.265686 112.971031,259.289612 112.979652,264.032745 
	C113.020523,286.521790 112.997986,309.010895 112.998032,332.000000 
z"/>
<path fill="transparent" opacity="1.000000" stroke="none" 
	d="
M232.998016,335.000000 
	C232.997986,342.663513 233.039719,349.827362 232.983139,356.990417 
	C232.945953,361.698486 230.530746,364.710632 226.846115,364.419098 
	C222.553238,364.079376 220.983078,361.300537 220.986771,357.222473 
	C221.014999,326.069519 221.019684,294.916534 220.981232,263.763641 
	C220.976151,259.645447 222.612427,256.944702 226.861099,256.583099 
	C230.537720,256.270142 232.972519,259.274231 232.980316,264.031036 
	C233.018890,287.520630 232.997971,311.010345 232.998016,335.000000 
z"/>
<path fill="transparent" opacity="1.000000" stroke="none" 
	d="
M341.001953,313.000000 
	C341.001984,296.507050 340.989532,280.514038 341.009186,264.521118 
	C341.015533,259.356995 343.263885,256.463257 347.099182,256.536438 
	C350.754761,256.606171 352.980774,259.419708 352.984833,264.273071 
	C353.010681,295.092834 352.975006,325.912659 353.024719,356.732361 
	C353.031555,360.962463 351.657928,364.010071 347.096344,364.414642 
	C343.285645,364.752625 341.018951,361.675568 341.010284,356.481079 
	C340.986359,342.154083 341.001953,327.827026 341.001953,313.000000 
z"/>
<path fill="transparent" opacity="1.000000" stroke="none" 
	d="
M292.998047,281.000244 
	C292.998047,306.489197 292.963623,331.478302 293.031830,356.467133 
	C293.043243,360.632477 291.905273,363.811859 287.359528,364.414856 
	C283.541534,364.921265 281.022675,361.789520 281.013458,356.746185 
	C280.983093,340.086914 281.001984,323.427521 281.001953,306.768188 
	C281.001953,292.774353 280.992340,278.780487 281.006897,264.786652 
	C281.012421,259.478027 283.041992,256.642700 286.833679,256.536530 
	C290.770996,256.426239 292.971832,259.430176 292.993713,265.007141 
	C293.013977,270.171448 292.998047,275.335907 292.998047,281.000244 
z"/>
<path fill="transparent" opacity="1.000000" stroke="none" 
	d="
M172.998077,288.000000 
	C172.998062,311.156799 173.009506,333.813629 172.989334,356.470428 
	C172.984772,361.599548 170.688263,364.525970 166.862885,364.464539 
	C163.191467,364.405548 161.020706,361.627625 161.012924,356.747864 
	C160.985001,339.255524 161.001938,321.763123 161.001923,304.270721 
	C161.001923,291.109772 160.990677,277.948853 161.007431,264.787903 
	C161.014206,259.471130 163.043762,256.640533 166.836975,256.536407 
	C170.773651,256.428375 172.978149,259.432159 172.993103,265.009735 
	C173.013184,272.506470 172.998077,280.003235 172.998077,288.000000 
z"/>
<path fill="transparent" opacity="1.000000" stroke="none" 
	d="
M403.155090,363.012451 
	C402.223206,360.744873 401.087646,358.751556 401.080383,356.754120 
	C400.967926,325.814148 400.988770,294.873627 401.015839,263.933258 
	C401.019928,259.260162 403.489777,256.250519 407.166443,256.580383 
	C411.449005,256.964569 413.006500,259.803345 413.004852,263.828461 
	C412.992279,294.935181 413.027863,326.041962 412.973053,357.148590 
	C412.962006,363.410034 409.436279,365.586395 403.155090,363.012451 
z"/>
</svg>