<svg viewBox="0 0 100 100" xmlns="http://www.w3.org/2000/svg"><path d="M78,62.5Q65,75,45.5,83.5Q26,92,20,71Q14,50,20,29Q26,8,45,16.5Q64,25,77.5,37.5Q91,50,78,62.5Z" stroke="none" stroke-width="0" fill="#e6f7f3"></path><path d="M68.5,62Q64,74,45.5,82Q27,90,22.5,70Q18,50,25.5,35.5Q33,21,50.5,19.5Q68,18,70.5,34Q73,50,68.5,62Z" stroke="none" stroke-width="0" fill="#e6f6f1"></path><path d="M75.5,64.5Q67,79,53.5,73.5Q40,68,24.5,59Q9,50,23,39Q37,28,54,20.5Q71,13,77.5,31.5Q84,50,75.5,64.5Z" stroke="none" stroke-width="0" fill="#e6f5ef"></path><path d="M77.5,59Q60,68,50,68Q40,68,28.5,59Q17,50,26,37.5Q35,25,54,17.5Q73,10,84,30Q95,50,77.5,59Z" stroke="none" stroke-width="0" fill="#e6f4ed"></path><path d="M75.5,69Q72,88,54,81Q36,74,30.5,62Q25,50,29,35Q33,20,51,18.5Q69,17,74,33.5Q79,50,75.5,69Z" stroke="none" stroke-width="0" fill="#e6f3eb"></path><path d="M79.5,66Q68,82,53.5,75Q39,68,32,59Q25,50,27,31.5Q29,13,51.5,11Q74,9,82.5,29.5Q91,50,79.5,66Z" stroke="none" stroke-width="0" fill="#e6f2e9"></path><path d="M66,59Q60,68,42.5,80.5Q25,93,27.5,71.5Q30,50,35,41Q40,32,52.5,28Q65,24,68.5,37Q72,50,66,59Z" stroke="none" stroke-width="0" fill="#e6f1e7"></path><path d="M80,67.5Q70,85,53,80Q36,75,25,62.5Q14,50,19.5,28.5Q25,7,47,12Q69,17,79.5,33.5Q90,50,80,67.5Z" stroke="none" stroke-width="0" fill="#e6f0e5"></path><path d="M80,66.5Q69,83,54,76Q39,69,20.5,59.5Q2,50,14.5,30Q27,10,45.5,17.5Q64,25,77.5,37.5Q91,50,80,66.5Z" stroke="none" stroke-width="0" fill="#e6efe3"></path><path d="M79,66Q68,82,50,82Q32,82,26,66Q20,50,25.5,33.5Q31,17,52.5,13Q74,9,82,29.5Q90,50,79,66Z" stroke="none" stroke-width="0" fill="#e6eee1"></path><path d="M73.5,61.5Q63,73,44,83Q25,93,26.5,71.5Q28,50,33,39.5Q38,29,51,27.5Q64,26,74,38Q84,50,73.5,61.5Z" stroke="none" stroke-width="0" fill="#e6eddf"></path><path d="M71,68.5Q71,87,50.5,86Q30,85,21,67.5Q12,50,23.5,37Q35,24,48.5,27Q62,30,66.5,40Q71,50,71,68.5Z" stroke="none" stroke-width="0" fill="#e6ecdd"></path><path d="M76.5,64Q66,78,48.5,80.5Q31,83,18.5,66.5Q6,50,17.5,31.5Q29,13,47.5,18Q66,23,76.5,36.5Q87,50,76.5,64Z" stroke="none" stroke-width="0" fill="#e6ebdb"></path><path d="M78.5,60.5Q62,71,50,71Q38,71,23.5,60.5Q9,50,20.5,34.5Q32,19,52,15.5Q72,12,83.5,31Q95,50,78.5,60.5Z" stroke="none" stroke-width="0" fill="#e6ead9"></path><path d="M73.5,64Q66,78,46.5,84Q27,90,20.5,70Q14,50,26,40Q38,30,56,19.5Q74,9,77.5,29.5Q81,50,73.5,64Z" stroke="none" stroke-width="0" fill="#e6e9d7"></path><path d="M76,63Q65,76,47.5,80Q30,84,17.5,67Q5,50,22,40Q39,30,55,22Q71,14,79,32Q87,50,76,63Z" stroke="none" stroke-width="0" fill="#e6e8d5"></path><path d="M77.5,68.5Q71,87,53,81Q35,75,32.5,62.5Q30,50,29,31Q28,12,51.5,9.5Q75,7,79.5,28.5Q84,50,77.5,68.5Z" stroke="none" stroke-width="0" fill="#e6e7d3"></path><path d="M77,69Q72,88,48.5,90.5Q25,93,21,71.5Q17,50,22,30.5Q27,11,47.5,15.5Q68,20,75,35Q82,50,77,69Z" stroke="none" stroke-width="0" fill="#e6e6d1"></path><path d="M82.5,71.5Q75,93,52.5,89Q30,85,28.5,67.5Q27,50,30.5,35.5Q34,21,54,14.5Q74,8,82,29Q90,50,82.5,71.5Z" stroke="none" stroke-width="0" fill="#e6e5cf"></path><path d="M70,65.5Q68,81,47,86Q26,91,24,70.5Q22,50,27,34.5Q32,19,50.5,18Q69,17,70.5,33.5Q72,50,70,65.5Z" stroke="none" stroke-width="0" fill="#e6e4cd"></path><path d="M74,66Q69,82,52,79Q35,76,25,63Q15,50,27,40Q39,30,51.5,27.5Q64,25,71.5,37.5Q79,50,74,66Z" stroke="none" stroke-width="0" fill="#e6e3cb"></path><path d="M86,71Q74,92,53,87Q32,82,29,66Q26,50,31,38.5Q36,27,51,25Q66,23,82,36.5Q98,50,86,71Z" stroke="none" stroke-width="0" fill="#e6e2c9"></path><path d="M71,62.5Q64,75,49.5,75.5Q35,76,29.5,63Q24,50,28,34.5Q32,19,51.5,16Q71,13,74.5,31.5Q78,50,71,62.5Z" stroke="none" stroke-width="0" fill="#e6e1c7"></path><path d="M81.5,65.5Q68,81,51.5,78.5Q35,76,25,63Q15,50,22.5,32.5Q30,15,46,22Q62,29,78.5,39.5Q95,50,81.5,65.5Z" stroke="none" stroke-width="0" fill="#e6e0c5"></path><path d="M77.5,68.5Q71,87,53,81Q35,75,32.5,62.5Q30,50,29,31Q28,12,51.5,9.5Q75,7,79.5,28.5Q84,50,77.5,68.5Z" stroke="none" stroke-width="0" fill="#e6dfc3"></path><path d="M77,70Q73,90,50,90Q27,90,22,70Q17,50,25.5,36Q34,22,52,18.5Q70,15,75.5,32.5Q81,50,77,70Z" stroke="none" stroke-width="0" fill="#e6dec1"></path><path d="M79.5,71Q74,92,56,81.5Q38,71,27,60.5Q16,50,24.5,35Q33,20,49,22Q65,24,75,37Q85,50,79.5,71Z" stroke="none" stroke-width="0" fill="#e6ddbf"></path><path d="M85,70Q73,90,53.5,84.5Q34,79,26,64.5Q18,50,24.5,33.5Q31,17,51,15.5Q71,14,84,32Q97,50,85,70Z" stroke="none" stroke-width="0" fill="#e6dcbd"></path><path d="M78,70.5Q74,91,53.5,85Q33,79,25.5,64.5Q18,50,26.5,36.5Q35,23,51,21.5Q67,20,74.5,35Q82,50,78,70.5Z" stroke="none" stroke-width="0" fill="#e6dbbb"></path><path d="M80,68Q71,86,55,77.5Q39,69,31.5,59.5Q24,50,25.5,30Q27,10,45,18.5Q63,27,76,38.5Q89,50,80,68Z" stroke="none" stroke-width="0" fill="#e6dab9"></path><path d="M79,65.5Q68,81,48,85Q28,89,19,69.5Q10,50,23,38Q36,26,52,22Q68,18,79,34Q90,50,79,65.5Z" stroke="none" stroke-width="0" fill="#e6d9b7"></path><path d="M74,71Q74,92,52.5,87.5Q31,83,29.5,66.5Q28,50,27.5,30.5Q27,11,46,18Q65,25,69.5,37.5Q74,50,74,71Z" stroke="none" stroke-width="0" fill="#e6d8b5"></path><path d="M82.5,67Q70,84,49,86Q28,88,28,69Q28,50,34,41Q40,32,55,23.5Q70,15,82.5,32.5Q95,50,82.5,67Z" stroke="none" stroke-width="0" fill="#e6d7b3"></path><path d="M81.5,71.5Q75,93,55.5,84Q36,75,20.5,62.5Q5,50,21,38.5Q37,27,54.5,19.5Q72,12,80,31Q88,50,81.5,71.5Z" stroke="none" stroke-width="0" fill="#e6d6b1"></path><path d="M68.5,60.5Q62,71,44.5,80.5Q27,90,27.5,70Q28,50,28.5,31.5Q29,13,46.5,19.5Q64,26,69.5,38Q75,50,68.5,60.5Z" stroke="none" stroke-width="0" fill="#e6d5af"></path><path d="M78,63.5Q65,77,51.5,73.5Q38,70,27,60Q16,50,26.5,38.5Q37,27,52,24Q67,21,79,35.5Q91,50,78,63.5Z" stroke="none" stroke-width="0" fill="#e6d4ad"></path><path d="M82,64.5Q67,79,48.5,81.5Q30,84,28.5,67Q27,50,28.5,33Q30,16,49.5,16Q69,16,83,33Q97,50,82,64.5Z" stroke="none" stroke-width="0" fill="#e6d3ab"></path><path d="M73.5,61.5Q63,73,47,78Q31,83,26,66.5Q21,50,27.5,36Q34,22,49.5,23Q65,24,74.5,37Q84,50,73.5,61.5Z" stroke="none" stroke-width="0" fill="#e6d2a9"></path><path d="M70,60.5Q62,71,49,73Q36,75,30.5,62.5Q25,50,29.5,36Q34,22,53.5,16.5Q73,11,75.5,30.5Q78,50,70,60.5Z" stroke="none" stroke-width="0" fill="#e6d1a7"></path><path d="M73,62Q64,74,51,72Q38,70,31,60Q24,50,27,33Q30,16,49,17.5Q68,19,75,34.5Q82,50,73,62Z" stroke="none" stroke-width="0" fill="#e6d0a5"></path><path d="M69,65Q67,80,49,82Q31,84,26,67Q21,50,29,39Q37,28,54.5,20Q72,12,71.5,31Q71,50,69,65Z" stroke="none" stroke-width="0" fill="#e6cfa3"></path><path d="M77.5,65Q67,80,50,80Q33,80,27,65Q21,50,28.5,37.5Q36,25,51.5,22.5Q67,20,77.5,35Q88,50,77.5,65Z" stroke="none" stroke-width="0" fill="#e6cea1"></path><path d="M68.5,60Q62,70,44.5,80Q27,90,28.5,70Q30,50,34.5,40Q39,30,54,24Q69,18,72,34Q75,50,68.5,60Z" stroke="none" stroke-width="0" fill="#e6cd9f"></path><path d="M73.5,67.5Q70,85,48.5,88Q27,91,14,70.5Q1,50,18,37Q35,24,53.5,18.5Q72,13,74.5,31.5Q77,50,73.5,67.5Z" stroke="none" stroke-width="0" fill="#e6cc9d"></path><path d="M84.5,68Q71,86,50,86.5Q29,87,14.5,68.5Q0,50,15.5,33.5Q31,17,47.5,21.5Q64,26,81,38Q98,50,84.5,68Z" stroke="none" stroke-width="0" fill="#e6cb9b"></path><path d="M74.5,71Q74,92,50.5,91Q27,90,19,70Q11,50,22,35Q33,20,50,20Q67,20,71,35Q75,50,74.5,71Z" stroke="none" stroke-width="0" fill="#e6ca99"></path><path d="M76.5,70.5Q74,91,54,84Q34,77,28,63.5Q22,50,24,29.5Q26,9,47,14Q68,19,73.5,34.5Q79,50,76.5,70.5Z" stroke="none" stroke-width="0" fill="#e6c997"></path><path d="M71,68.5Q71,87,50.5,86Q30,85,21,67.5Q12,50,23.5,37Q35,24,48.5,27Q62,30,66.5,40Q71,50,71,68.5Z" stroke="none" stroke-width="0" fill="#e6c895"></path><path d="M68.5,61.5Q63,73,50,73Q37,73,19,61.5Q1,50,17.5,36Q34,22,47,27Q60,32,67,41Q74,50,68.5,61.5Z" stroke="none" stroke-width="0" fill="#e6c793"></path><path d="M82,64.5Q67,79,48.5,81.5Q30,84,28.5,67Q27,50,28.5,33Q30,16,49.5,16Q69,16,83,33Q97,50,82,64.5Z" stroke="none" stroke-width="0" fill="#e6c691"></path><path d="M73,60Q61,70,43.5,80.5Q26,91,14.5,70.5Q3,50,15,30Q27,10,45.5,18Q64,26,74.5,38Q85,50,73,60Z" stroke="none" stroke-width="0" fill="#e6c58f"></path><path d="M73,62Q64,74,51,72Q38,70,31,60Q24,50,27,33Q30,16,49,17.5Q68,19,75,34.5Q82,50,73,62Z" stroke="none" stroke-width="0" fill="#e6c48d"></path><path d="M81,70.5Q74,91,56.5,80Q39,69,20.5,59.5Q2,50,19.5,39Q37,28,55,19.5Q73,11,80.5,30.5Q88,50,81,70.5Z" stroke="none" stroke-width="0" fill="#e6c38b"></path><path d="M78,68Q71,86,50,86.5Q29,87,28.5,68.5Q28,50,28.5,32Q29,14,51,11.5Q73,9,79,29.5Q85,50,78,68Z" stroke="none" stroke-width="0" fill="#e6c289"></path><path d="M73,63.5Q66,77,48,81Q30,85,21.5,67.5Q13,50,22.5,34.5Q32,19,52.5,14.5Q73,10,76.5,30Q80,50,73,63.5Z" stroke="none" stroke-width="0" fill="#e6c187"></path><path d="M71.5,61Q63,72,44,82.5Q25,93,25,71.5Q25,50,29,35Q33,20,48.5,23Q64,26,72,38Q80,50,71.5,61Z" stroke="none" stroke-width="0" fill="#e6c085"></path><path d="M73,68.5Q71,87,54.5,79Q38,71,30.5,60.5Q23,50,28,35.5Q33,21,53,15.5Q73,10,74,30Q75,50,73,68.5Z" stroke="none" stroke-width="0" fill="#e6bf83"></path><path d="M80.5,66.5Q69,83,49,84.5Q29,86,24,68Q19,50,25.5,35Q32,20,48,23Q64,26,78,38Q92,50,80.5,66.5Z" stroke="none" stroke-width="0" fill="#e6be81"></path><path d="M67,59Q60,68,46,75Q32,82,30.5,66Q29,50,30.5,34.5Q32,19,53.5,13Q75,7,74.5,28.5Q74,50,67,59Z" stroke="none" stroke-width="0" fill="#e6bd7f"></path><path d="M70.5,60Q62,70,50.5,70Q39,70,24.5,60Q10,50,18,29Q26,8,44,18.5Q62,29,70.5,39.5Q79,50,70.5,60Z" stroke="none" stroke-width="0" fill="#e6bc7d"></path><path d="M72,62.5Q64,75,46,81.5Q28,88,19.5,69Q11,50,20.5,32.5Q30,15,45.5,23Q61,31,70.5,40.5Q80,50,72,62.5Z" stroke="none" stroke-width="0" fill="#e6bb7b"></path><path d="M73.5,67Q70,84,48.5,86.5Q27,89,15.5,69.5Q4,50,18,34Q32,18,46.5,24.5Q61,31,69,40.5Q77,50,73.5,67Z" stroke="none" stroke-width="0" fill="#e6ba79"></path></svg>