<svg version="1.1" id="Layer_1" xmlns="http://www.w3.org/2000/svg" xmlns:xlink="http://www.w3.org/1999/xlink" x="0px" y="0px"
	 width="100%" viewBox="0 0 496 496" enable-background="new 0 0 496 496" xml:space="preserve">
<path fill="transparent" opacity="1.000000" stroke="none" 
	d="
M497.000000,117.000000 
	C497.000000,243.624527 497.000000,370.249054 497.000000,496.936768 
	C331.763855,496.936768 166.527649,496.936768 1.000000,496.936768 
	C1.000000,356.310822 1.000000,215.621460 1.201474,74.685165 
	C2.331076,76.016983 3.599202,76.145584 5.249217,75.581924 
	C7.659387,74.758591 10.238209,74.684113 12.649787,75.305626 
	C17.772505,76.625854 22.188572,75.475548 26.145906,72.142609 
	C33.202988,66.198997 41.073837,64.919762 50.001133,67.098991 
	C55.961060,68.553864 62.267929,69.166206 68.193802,66.741348 
	C79.267838,62.209873 89.071144,56.018459 96.093338,45.844475 
	C99.077621,41.520737 103.293793,38.214424 107.968903,35.373150 
	C114.032318,31.688129 120.647736,28.640373 125.405930,23.031656 
	C127.126961,21.003004 128.758041,18.729525 126.822365,16.375910 
	C123.810707,12.713982 123.207695,8.671253 123.758331,4.274710 
	C123.965004,2.624488 123.062859,1.832564 122.000000,1.000000 
	C207.355972,1.000000 292.711945,1.000000 378.344360,1.231380 
	C376.889923,5.541276 380.950012,8.943317 379.952637,12.945132 
	C378.076599,20.472700 382.286987,24.794529 388.088043,28.230949 
	C391.667725,30.351486 395.056885,33.161682 398.933716,34.346539 
	C412.855774,38.601494 422.278442,48.722740 431.820282,58.684948 
	C437.012115,64.105469 441.616608,70.116295 444.229370,77.267311 
	C446.524261,83.548286 450.860382,87.589844 456.282837,91.322632 
	C464.601532,97.049194 472.739899,103.175430 476.153961,113.577744 
	C478.702606,121.343239 481.864746,122.460823 489.370300,118.767525 
	C491.850983,117.546844 494.252991,116.720612 497.000000,117.000000 
M315.715607,233.783569 
	C328.065308,246.174805 340.382202,258.598999 352.780640,270.941254 
	C357.829895,275.967621 362.266846,276.394501 366.772827,272.154633 
	C371.379883,267.819672 375.818939,263.289825 380.112152,258.642609 
	C383.825806,254.622726 383.714111,250.859589 380.111847,246.603806 
	C378.823090,245.081253 377.371094,243.693466 375.956970,242.280853 
	C335.171234,201.538910 294.385040,160.797424 253.587601,120.067223 
	C245.742432,112.234993 242.817810,112.230110 235.001617,120.043991 
	C204.364685,150.671921 173.743530,181.315643 143.116577,211.953552 
	C132.043701,223.030350 120.931541,234.068298 109.917145,245.202942 
	C105.304405,249.865982 104.781807,254.334244 108.555588,258.419922 
	C113.073601,263.311340 117.835648,267.990356 122.676140,272.566589 
	C126.061874,275.767487 129.891953,275.690369 133.562469,272.912903 
	C135.148224,271.712921 136.564804,270.273834 137.976608,268.861755 
	C171.783707,235.048462 205.575180,201.219513 239.382751,167.406693 
	C244.343613,162.445038 244.411377,162.439194 249.497620,167.524216 
	C271.413177,189.434433 293.305298,211.368118 315.715607,233.783569 
M223.701736,290.202637 
	C229.233734,284.659241 234.997253,279.323151 240.213120,273.496765 
	C243.475357,269.852661 245.613556,270.472687 248.672943,273.590881 
	C261.392426,286.554962 274.280731,299.353485 287.113678,312.206146 
	C309.129944,334.256226 331.132263,356.320312 353.184082,378.334778 
	C358.462433,383.604248 362.423340,383.561340 367.803375,378.428711 
	C369.852478,376.473785 371.830139,374.443970 373.837646,372.445526 
	C386.074005,360.264587 386.080170,359.576233 373.969757,347.472137 
	C333.899597,307.422882 293.840454,267.362610 253.744598,227.339127 
	C245.689224,219.298294 243.139587,219.334290 235.251053,227.167877 
	C218.466171,243.835846 201.649246,260.471771 184.921021,277.196442 
	C159.587692,302.524323 134.295090,327.893097 109.046562,353.305450 
	C105.010162,357.368073 105.054825,361.965057 109.014397,366.155396 
	C113.246674,370.634277 117.572479,375.036499 122.049942,379.268555 
	C126.225960,383.215637 130.131195,383.143585 134.429993,379.368134 
	C135.930573,378.050262 137.332275,376.617096 138.745697,375.203156 
	C166.899902,347.038483 195.049210,318.868958 223.701736,290.202637 
z"/>
</svg>