<?xml version="1.0" encoding="UTF-8"?>
<svg version="1.1" xmlns="http://www.w3.org/2000/svg" width="500" height="500">
<path d="M0 0 C7.64158558 5.17865691 14.03405946 12.89272124 20.55053711 19.42114258 C21.80110389 20.67035226 23.05188286 21.91934956 24.30285645 23.16815186 C27.67864226 26.53940294 31.05128659 29.91378011 34.42321467 33.28888917 C37.9566317 36.82484695 41.49249804 40.35835414 45.02796936 43.89225769 C50.95672446 49.81919753 56.88337657 55.74823412 62.80883789 61.6784668 C69.66443636 68.53952173 76.52365019 75.39694647 83.3847236 82.2525261 C89.27968488 88.14295586 95.17270337 94.03532393 101.06408888 99.92933005 C104.58132738 103.44812917 108.09924196 106.96624522 111.61890984 110.48261452 C114.92161772 113.78244263 118.22188675 117.08469036 121.52025604 120.38885498 C122.73322464 121.60314995 123.94705265 122.81658713 125.16178322 124.02911949 C126.81422697 125.67884736 128.46358616 127.33159732 130.11216736 128.98518372 C131.03739669 129.91079007 131.96262602 130.83639643 132.9158926 131.79005146 C135.84283782 134.89372948 136.64476606 137.32177982 136.60546875 141.65234375 C135.2709649 146.82677482 130.70077045 150.36436311 127 154 C126.36964844 154.68835938 125.73929687 155.37671875 125.08984375 156.0859375 C121.38557123 160.08553926 118.26400209 162.44029568 113 164 C107.0339787 163.36412312 104.17184356 160.02002014 100 156 C99.46117187 155.48163574 98.92234375 154.96327148 98.3671875 154.42919922 C96.5690633 152.69097949 94.78239785 150.94183622 93 149.1875 C92.11731445 148.32463379 92.11731445 148.32463379 91.21679688 147.44433594 C89.77149747 146.00159609 88.38060001 144.50476983 87 143 C87 142.34 87 141.68 87 141 C86.12588911 140.61344836 86.12588911 140.61344836 85.23411942 140.2190876 C82.80668244 138.89451278 81.20436322 137.45057481 79.25408936 135.49459839 C78.1604155 134.40504852 78.1604155 134.40504852 77.04464722 133.29348755 C75.8599736 132.09802811 75.8599736 132.09802811 74.65136719 130.87841797 C73.81197601 130.03931885 72.97258484 129.20021973 72.10775757 128.33569336 C69.81104028 126.03782233 67.51881904 123.73557743 65.2285223 121.43131018 C62.83246532 119.02274213 60.43073512 116.61984484 58.02960205 114.21633911 C53.48538703 109.66591044 48.9462939 105.11040801 44.40902066 100.55305874 C39.24248334 95.36415889 34.07025899 90.18094375 28.89755011 84.99819732 C18.25869517 74.33844297 7.62699993 63.67157395 -3 53 C-9.83497611 57.70085716 -15.54729695 63.31132118 -21.34399414 69.2121582 C-22.35794826 70.23651928 -23.37240246 71.26038556 -24.38731384 72.28379822 C-26.55834885 74.47459224 -28.72639351 76.668287 -30.8922596 78.86419106 C-34.31940596 82.33774311 -37.75654586 85.80129045 -41.19566345 89.26298523 C-50.96903066 99.10300006 -60.73378066 108.95145699 -70.4777832 118.82055664 C-75.86982372 124.28165341 -81.27252667 129.73196188 -86.68731588 135.17050618 C-90.10792307 138.60728977 -93.51498739 142.05678776 -96.91264927 145.5162493 C-99.02845956 147.66409747 -101.15676957 149.79920879 -103.28884315 151.93090248 C-104.27327474 152.92017199 -105.25256314 153.91459095 -106.22618484 154.91450119 C-114.50141543 163.40371018 -114.50141543 163.40371018 -119.01268005 164.14738464 C-127.91680261 163.70808422 -136.18095256 152.20399981 -142 146 C-144.40832094 142.38751859 -144.72360855 141.26125032 -144 137 C-138.63014804 129.36862304 -131.08271636 122.94135174 -124.48706055 116.35766602 C-123.22799876 115.09724716 -121.96914937 113.83661611 -120.710495 112.57579041 C-117.31238546 109.17314579 -113.91114935 105.77364302 -110.50918174 102.37485623 C-106.94519682 98.81341191 -103.38366231 95.24951845 -99.82173157 91.6860199 C-93.84771331 85.71018633 -87.87159816 79.73645585 -81.89428711 73.76391602 C-74.97870068 66.85378593 -68.06674422 59.9400406 -61.15663308 53.02443558 C-55.21949457 47.08276557 -49.28041776 41.14303831 -43.3397029 35.20494407 C-39.7929581 31.65975992 -36.24689641 28.11389959 -32.70258141 24.56628609 C-29.37648847 21.23731342 -26.04797592 17.91077947 -22.71754646 14.5861454 C-21.49357613 13.36350147 -20.27046365 12.13999809 -19.04825592 10.91559219 C-17.38539091 9.25001139 -15.71950371 7.58751477 -14.05278015 5.92579651 C-13.11979945 4.99319283 -12.18681875 4.06058916 -11.22556591 3.09972477 C-7.52896814 -0.38785467 -5.06031411 -0.65294376 0 0 Z " fill="#F5F5F5" transform="translate(247,219)"/>
<path d="M0 0 C2.16745504 1.71114834 3.97856121 3.31726859 5.88424683 5.27624512 C6.4326347 5.8196553 6.98102257 6.36306548 7.54602826 6.92294264 C9.37202139 8.73839759 11.17963663 10.57108933 12.98779297 12.40429688 C14.29646504 13.71274215 15.60623185 15.02009327 16.91700745 16.32643127 C20.46718141 19.87090423 24.00166493 23.43065591 27.53339529 26.99349403 C31.2304853 30.71814118 34.94136259 34.42900184 38.65066528 38.14147949 C44.87434795 44.37436136 51.08879225 50.61632783 57.296875 56.86474609 C66.06062147 65.68537956 74.84163725 74.48866652 83.62580276 83.28895855 C89.70331432 89.37891324 95.77670036 95.47298167 101.84929895 101.56783485 C103.32360417 103.04750586 104.7980244 104.52706229 106.27255774 106.00650597 C110.4726757 110.22090381 114.67021391 114.43783704 118.863554 118.65897942 C120.13620219 119.93936489 121.4096944 121.21891206 122.68407249 122.49757576 C124.41761941 124.23731652 126.14805407 125.9800924 127.87765503 127.72375488 C128.38746347 128.23406108 128.89727192 128.74436728 129.4225291 129.27013731 C132.63471979 132.5176894 133.8655197 134.0250178 134.5 138.625 C134.43091424 143.40055296 132.30102087 145.71925532 129.07421875 149.05078125 C126.36751838 151.59436596 123.62057915 154.07065515 120.77734375 156.4609375 C118.8597552 158.05567432 118.8597552 158.05567432 116.875 160.375 C114.20937418 162.68520904 112.5194409 163 109 163 C102.13686988 159.86948042 97.3772395 154.79419813 92.11743164 149.48974609 C91.1416692 148.51641497 90.16526174 147.54373011 89.18826294 146.57164001 C86.55166009 143.94439765 83.92449774 141.30790228 81.29926229 138.66930723 C78.5480945 135.90678688 75.78918072 133.15202124 73.03135681 130.39614868 C68.40720028 125.77287326 63.78904392 121.14367123 59.17456055 116.51074219 C53.8350025 111.149963 48.4866092 105.79812636 43.13331896 100.45106256 C37.98198352 95.30541241 32.83632155 90.15412666 27.69344902 85.00001907 C25.50419894 82.80611767 23.3130679 80.61412034 21.12043953 78.42359543 C18.54421808 75.84925154 15.97301903 73.26999522 13.40568924 70.68678474 C12.00875813 69.28356027 10.60688886 67.88525731 9.20491028 66.48707581 C7.97058258 65.2421209 7.97058258 65.2421209 6.71131897 63.97201538 C5.6298665 62.88748361 5.6298665 62.88748361 4.52656651 61.7810421 C3 60 3 60 3 58 C2.443125 57.7525 1.88625 57.505 1.3125 57.25 C-1.39971127 55.78393985 -3.63587365 53.97010529 -6 52 C-12.069092 57.15168092 -17.75073668 62.61297567 -23.3659668 68.25244141 C-24.71629501 69.60255058 -24.71629501 69.60255058 -26.09390259 70.97993469 C-28.54014454 73.4258921 -30.98331032 75.87490068 -33.42589927 78.32450533 C-35.99353024 80.89843636 -38.5640402 83.46948913 -41.13423157 86.04086304 C-45.99617482 90.9059036 -50.85556678 95.77348408 -55.71402436 100.64200532 C-61.22901489 106.1681733 -66.74684249 111.69150471 -72.26491678 117.21459317 C-81.70043638 126.65878204 -91.1338431 136.10507648 -100.56486511 145.55375671 C-101.34269348 146.33303024 -102.12052185 147.11230377 -102.92192078 147.91519165 C-103.63586691 148.63081898 -104.34981304 149.3464463 -105.08539391 150.08375931 C-106.68972334 151.68945845 -108.298603 153.29039072 -109.9087677 154.89022827 C-111.46756591 156.46284572 -112.96876019 158.09296021 -114.4375 159.75 C-117.49848295 162.43769235 -118.93300599 163.08133988 -123 163 C-128.79414652 160.20427188 -132.86784124 156.53492898 -137.3125 151.9375 C-137.93189453 151.31294922 -138.55128906 150.68839844 -139.18945312 150.04492188 C-145.70320771 143.4180076 -145.70320771 143.4180076 -146.5625 139.3125 C-145.03808574 130.33539383 -133.53029283 122.395455 -127.17724609 116.0637207 C-125.99200808 114.87876525 -124.80699119 113.69358858 -123.62217712 112.50820923 C-120.42417926 109.30992593 -117.22311973 106.11472328 -114.02148008 102.92008615 C-110.66279535 99.56768442 -107.30697262 96.21242016 -103.95083618 92.85746765 C-97.59832358 86.50805648 -91.24326856 80.1611964 -84.88728201 73.81526297 C-77.66828281 66.60743614 -70.45211644 59.39677608 -63.23619342 52.18586981 C-50.90071288 39.85906301 -38.5631358 27.53435791 -26.22315979 15.21205139 C-25.70173295 14.69136414 -25.1803061 14.17067689 -24.64307845 13.63421124 C-23.25720304 12.25031748 -21.87129675 10.86645466 -20.4853878 9.48259449 C-19.25512084 8.25371022 -19.25512084 8.25371022 -18 7 C-17.10234232 6.10505923 -16.20468464 5.21011847 -15.27982521 4.28805828 C-13.95821357 2.96167394 -12.64908953 1.62209642 -11.375 0.25 C-7.63298104 -3.15183542 -4.26574397 -1.61375518 0 0 Z " fill="#F6F6F6" transform="translate(249,113)"/>
<path d="M0 0 C0.66 0 1.32 0 2 0 C1.41815146 3.52738271 0.19436443 5.17331691 -2.32641602 7.66699219 C-3.3773922 8.71762848 -3.3773922 8.71762848 -4.44960022 9.78948975 C-5.5902317 10.90689545 -5.5902317 10.90689545 -6.75390625 12.046875 C-7.52935287 12.81807678 -8.3047995 13.58927856 -9.10374451 14.3838501 C-11.58304941 16.8463571 -14.07257992 19.29823134 -16.5625 21.75 C-18.2448244 23.41727909 -19.92647367 25.08523969 -21.60742188 26.75390625 C-25.73047875 30.84387902 -29.86198058 34.92516921 -34 39 C-34.99 38.67 -35.98 38.34 -37 38 C-36.3268148 37.33014572 -36.3268148 37.33014572 -35.64002991 36.64675903 C-30.98170954 32.01051252 -26.32687358 27.37078902 -21.67407227 22.72900391 C-19.93571199 20.99568142 -18.19645649 19.26325629 -16.45629883 17.53173828 C-13.95940655 15.04693577 -11.46572086 12.55895464 -8.97265625 10.0703125 C-8.19036148 9.29317902 -7.40806671 8.51604553 -6.60206604 7.71536255 C-5.8813945 6.99476654 -5.16072296 6.27417053 -4.41821289 5.53173828 C-3.78089737 4.89664337 -3.14358185 4.26154846 -2.48695374 3.60720825 C-0.91010952 2.05284111 -0.91010952 2.05284111 0 0 Z " fill="#C9C9C9" transform="translate(232,118)"/>
<path d="M0 0 C0.495 1.485 0.495 1.485 1 3 C-2.13797524 7.55512535 -5.77978177 10.50199395 -10.328125 13.60546875 C-12.28998841 14.99335874 -12.28998841 14.99335874 -13 18 C-14.62935241 19.37868281 -16.29749607 20.71274093 -18 22 C-18.66 22.66 -19.32 23.32 -20 24 C-20.66 24.33 -21.32 24.66 -22 25 C-22.30292969 25.61617188 -22.60585937 26.23234375 -22.91796875 26.8671875 C-25.17346447 31.31303826 -29.50639658 34.30086649 -33.9375 36.375 C-34.618125 36.58125 -35.29875 36.7875 -36 37 C-31.82222235 32.01407125 -27.46872723 27.33295716 -22.8515625 22.75390625 C-22.19417084 22.09792953 -21.53677917 21.44195282 -20.85946655 20.76609802 C-18.78367138 18.69584732 -16.70440573 16.62912349 -14.625 14.5625 C-13.2067992 13.14932138 -11.78882824 11.73591206 -10.37109375 10.32226562 C-6.91671223 6.87883935 -3.4592163 3.43856901 0 0 Z " fill="#BCBCBC" transform="translate(193,265)"/>
<path d="M0 0 C0 6.79193986 -8.71673326 12.83039737 -13.3125 17.5 C-13.84004883 18.04068115 -14.36759766 18.5813623 -14.91113281 19.13842773 C-16.23535932 20.46542906 -17.61378492 21.73789219 -19 23 C-19.66 23 -20.32 23 -21 23 C-21 25.64 -21 28.28 -21 31 C-21.66 30.67 -22.32 30.34 -23 30 C-23.4375 27.5 -23.4375 27.5 -23 24 C-21.72265625 22.20703125 -21.72265625 22.20703125 -20 20.3125 C-19.36441162 19.61318359 -18.72882324 18.91386719 -18.07397461 18.19335938 C-14.63776742 14.55935285 -11.11989527 11.01508407 -7.5625 7.5 C-6.83095703 6.77296875 -6.09941406 6.0459375 -5.34570312 5.296875 C-3.56610176 3.52890501 -1.78419082 1.76333622 0 0 Z " fill="#A5A5A5" transform="translate(126,225)"/>
<path d="M0 0 C0 1.66666667 0 3.33333333 0 5 C-1.66215268 6.33895632 -3.32963607 7.67130142 -5 9 C-5.598125 9.763125 -6.19625 10.52625 -6.8125 11.3125 C-9.30945851 14.38019188 -12.08867404 16.79883671 -15.09765625 19.3515625 C-16.81221871 20.83728192 -18.41884241 22.37451089 -20 24 C-20.99 23.67 -21.98 23.34 -23 23 C-15.41 15.41 -7.82 7.82 0 0 Z " fill="#BEBEBE" transform="translate(217,241)"/>
<path d="M0 0 C0.33 0.99 0.66 1.98 1 3 C-6 10 -13 17 -20 24 C-20.66 23.34 -21.32 22.68 -22 22 C-14.74 14.74 -7.48 7.48 0 0 Z " fill="#BDBDBD" transform="translate(175,176)"/>
<path d="M0 0 C0.33 0.66 0.66 1.32 1 2 C-0.04846541 3.46845587 -1.11443761 4.92442099 -2.1875 6.375 C-2.77917969 7.18710937 -3.37085938 7.99921875 -3.98046875 8.8359375 C-6.20510737 11.21978624 -7.97849254 11.90733262 -11 13 C-11.67156616 14.93618425 -11.67156616 14.93618425 -12 17 C-13.4375 18.75 -13.4375 18.75 -15 20 C-15.66 20 -16.32 20 -17 20 C-17.33 20.66 -17.66 21.32 -18 22 C-18.99 21.67 -19.98 21.34 -21 21 C-14.07 14.07 -7.14 7.14 0 0 Z " fill="#AAAAA9" transform="translate(140,318)"/>
<path d="M0 0 C0 3.65885288 -0.70804036 4.13424282 -3.125 6.75 C-5.56658005 9.41309437 -7.88277843 12.10552745 -10.125 14.9375 C-12.13829668 17.31881866 -12.80601888 17.93674529 -15.875 18.9375 C-16.57625 18.958125 -17.2775 18.97875 -18 19 C-12.44964797 12.21623641 -6.23557973 6.14477032 0 0 Z " fill="#B6B6B4" transform="translate(194,157)"/>
<path d="M0 0 C0 4.04016453 -1.46869212 4.9566059 -4.1875 7.875 C-5.00476563 8.75671875 -5.82203125 9.6384375 -6.6640625 10.546875 C-9.07166934 13.07526479 -11.49127434 15.57220098 -14 18 C-14.99 17.67 -15.98 17.34 -17 17 C-11.39 11.39 -5.78 5.78 0 0 Z " fill="#BDBDBD" transform="translate(212,139)"/>
<path d="M0 0 C0 3 0 3 -1 6 C-5.45714286 10 -5.45714286 10 -8 10 C-8 12.64 -8 15.28 -8 18 C-8.66 17.67 -9.32 17.34 -10 17 C-10.57553731 13.71121537 -10.48569405 11.69328908 -8.546875 8.92578125 C-6.75244766 6.88631656 -4.91660708 4.92481525 -3 3 C-2.14341797 2.13955078 -2.14341797 2.13955078 -1.26953125 1.26171875 C-0.85058594 0.84535156 -0.43164062 0.42898438 0 0 Z " fill="#888888" transform="translate(113,345)"/>
<path d="M0 0 C-1.23227427 4.65525834 -3.72708482 6.76390921 -7.34375 9.66796875 C-9.11685829 11.04494914 -9.11685829 11.04494914 -11 13 C-11.99 12.67 -12.98 12.34 -14 12 C-12.04761147 9.99387601 -10.08862178 7.99507567 -8.125 6 C-7.29162109 5.14148438 -7.29162109 5.14148438 -6.44140625 4.265625 C-2.2265625 0 -2.2265625 0 0 0 Z " fill="#A7A7A7" transform="translate(240,220)"/>
<path d="M0 0 C0.33 0.99 0.66 1.98 1 3 C-2.33333333 6.33333333 -5.66666667 9.66666667 -9 13 C-9.99 12.67 -10.98 12.34 -12 12 C-8.04 8.04 -4.08 4.08 0 0 Z " fill="#BABABA" transform="translate(152,199)"/>
<path d="M0 0 C0 4.03066816 -1.67283027 5.78303008 -4 9 C-6.46278801 11.46278801 -8.70676982 11.99771255 -12 13 C-8.19524578 8.43969176 -4.25030379 4.14910608 0 0 Z " fill="#BABABA" transform="translate(139,212)"/>
<path d="M0 0 C0 3 0 3 -1 6 C-2.62935241 7.37868281 -4.29749607 8.71274093 -6 10 C-6.66 10.66 -7.32 11.32 -8 12 C-10.125 12.625 -10.125 12.625 -12 13 C-8.19524578 8.43969176 -4.25030379 4.14910608 0 0 Z " fill="#B6B6B6" transform="translate(181,277)"/>
<path d="M0 0 C0.66 0 1.32 0 2 0 C1.43040847 3.62613199 0.07625466 5.25517741 -2.5625 7.75 C-3.52349609 8.67039062 -3.52349609 8.67039062 -4.50390625 9.609375 C-5.24447266 10.29773438 -5.24447266 10.29773438 -6 11 C-6.99 10.67 -7.98 10.34 -9 10 C-8.43410156 9.44570312 -7.86820313 8.89140625 -7.28515625 8.3203125 C-6.55167969 7.59585938 -5.81820312 6.87140625 -5.0625 6.125 C-4.33160156 5.40570313 -3.60070312 4.68640625 -2.84765625 3.9453125 C-0.94332001 2.12972808 -0.94332001 2.12972808 0 0 Z " fill="#B4B4B4" transform="translate(232,118)"/>
<path d="M0 0 C0.99 0.33 1.98 0.66 3 1 C1.71937515 2.7074998 0.38232443 4.37373596 -1 6 C-1.66 6 -2.32 6 -3 6 C-3.33 6.66 -3.66 7.32 -4 8 C-4.99 7.67 -5.98 7.34 -7 7 C-4.69 4.69 -2.38 2.38 0 0 Z " fill="#B5B5B5" transform="translate(126,332)"/>
<path d="M0 0 C3.84419647 0.38606247 5.35947723 2.16628972 7.75 5.0625 C8.36359375 5.79597656 8.9771875 6.52945313 9.609375 7.28515625 C10.06828125 7.85105469 10.5271875 8.41695312 11 9 C6.72946073 9 5.17101982 6.69874028 2 4 C1.34 4 0.68 4 0 4 C-0.33 3.01 -0.66 2.02 -1 1 C-0.67 0.67 -0.34 0.34 0 0 Z " fill="#787875" transform="translate(241,161)"/>
<path d="M0 0 C0.99 0.33 1.98 0.66 3 1 C-1.30769231 6.78461538 -1.30769231 6.78461538 -4.8125 7.875 C-5.8953125 7.936875 -5.8953125 7.936875 -7 8 C-6.02133662 6.85373678 -5.04205413 5.70800212 -4.0625 4.5625 C-3.51722656 3.92441406 -2.97195312 3.28632813 -2.41015625 2.62890625 C-1.63204305 1.73008851 -0.84063472 0.84063472 0 0 Z " fill="#BCBCBC" transform="translate(183,168)"/>
<path d="M0 0 C0.33 1.32 0.66 2.64 1 4 C-1.97 6.475 -1.97 6.475 -5 9 C-5.66 8.34 -6.32 7.68 -7 7 C-4.69 4.69 -2.38 2.38 0 0 Z " fill="#ABABAA" transform="translate(148,310)"/>
<path d="M0 0 C0 4.38968456 -2.12805101 5.76905739 -5 9 C-5.99 8.67 -6.98 8.34 -8 8 C-5.36 5.36 -2.72 2.72 0 0 Z " fill="#B1B1B0" transform="translate(203,148)"/>
<path d="M0 0 C0 1.66666667 0 3.33333333 0 5 C-1.8125 6.6875 -1.8125 6.6875 -4 8 C-4.99 7.67 -5.98 7.34 -7 7 C-4.69 4.69 -2.38 2.38 0 0 Z " fill="#A0A0A0" transform="translate(217,241)"/>
<path d="M0 0 C0 1.66666667 0 3.33333333 0 5 C-2.375 6.6875 -2.375 6.6875 -5 8 C-5.66 7.67 -6.32 7.34 -7 7 C-4.69 4.69 -2.38 2.38 0 0 Z " fill="#969696" transform="translate(225,233)"/>
<path d="M0 0 C0 3.90838866 -1.50567876 5.11594107 -4 8 C-4.99 7.67 -5.98 7.34 -7 7 C-4.69 4.69 -2.38 2.38 0 0 Z " fill="#B0B0B0" transform="translate(126,225)"/>
<path d="M0 0 C0.99 0.33 1.98 0.66 3 1 C0.47211993 3.79872437 -1.20411134 5.45773019 -5 6 C-3.35 4.02 -1.7 2.04 0 0 Z " fill="#B0B0B0" transform="translate(209,249)"/>
</svg>
